<?xml version="1.0" encoding="UTF-8" standalone="no"?>
<svg
   xmlns:dc="http://purl.org/dc/elements/1.1/"
   xmlns:cc="http://creativecommons.org/ns#"
   xmlns:rdf="http://www.w3.org/1999/02/22-rdf-syntax-ns#"
   xmlns:svg="http://www.w3.org/2000/svg"
   xmlns="http://www.w3.org/2000/svg"
   viewBox="0 0 299.1207 79.348715"
   height="79.348717"
   width="299.1207"
   xml:space="preserve"
   id="svg2"
   version="1.1"><metadata
     id="metadata8"><rdf:RDF><cc:Work
         rdf:about=""><dc:format>image/svg+xml</dc:format><dc:type
           rdf:resource="http://purl.org/dc/dcmitype/StillImage" /><dc:title></dc:title></cc:Work></rdf:RDF></metadata><defs
     id="defs6"><clipPath
       id="clipPath18"
       clipPathUnits="userSpaceOnUse"><path
         id="path16"
         d="M 0,841.89 H 595.28 V 0 H 0 Z" /></clipPath></defs><g
     transform="matrix(1.3333333,0,0,-1.3333333,-244.39823,795.88657)"
     id="g10"><g
       id="g12"><g
         clip-path="url(#clipPath18)"
         id="g14"><g
           transform="translate(229.6523,560.6631)"
           id="g20"><path
             id="path22"
             style="fill:#2296d5;fill-opacity:1;fill-rule:nonzero;stroke:none"
             d="m 0,0 c -1.288,0 -2.504,-0.242 -3.648,-0.724 -1.146,-0.484 -2.147,-1.154 -3.006,-2.013 -0.859,-0.858 -1.529,-1.86 -2.012,-3.005 -0.483,-1.146 -0.725,-2.361 -0.725,-3.649 0,-1.324 0.242,-2.558 0.725,-3.703 0.483,-1.144 1.153,-2.128 2.012,-2.951 0.859,-0.858 1.86,-1.538 3.006,-2.039 1.144,-0.501 2.36,-0.751 3.648,-0.751 0.572,0 0.859,-0.287 0.859,-0.858 0,-0.215 -0.081,-0.403 -0.242,-0.564 -0.16,-0.161 -0.367,-0.242 -0.617,-0.242 -1.538,0 -2.978,0.287 -4.319,0.859 -1.342,0.572 -2.514,1.359 -3.515,2.361 -1.002,1.037 -1.789,2.227 -2.361,3.569 -0.573,1.341 -0.859,2.781 -0.859,4.319 0,1.538 0.286,2.978 0.859,4.32 0.572,1.341 1.359,2.513 2.361,3.515 1.001,1.037 2.173,1.842 3.515,2.414 C -2.978,1.43 -1.538,1.717 0,1.717 0.572,1.717 0.859,1.43 0.859,0.858 0.859,0.286 0.572,0 0,0" /></g><g
           transform="translate(239.2041,540.0571)"
           id="g24"><path
             id="path26"
             style="fill:#2296d5;fill-opacity:1;fill-rule:nonzero;stroke:none"
             d="M 0,0 C -0.751,0 -1.458,0.134 -2.12,0.402 -2.782,0.671 -3.362,1.055 -3.861,1.556 -4.346,2.057 -4.728,2.638 -5.004,3.3 -5.281,3.961 -5.419,4.668 -5.419,5.419 v 16.152 c 0,0.573 0.276,0.859 0.831,0.859 0.554,0 0.832,-0.286 0.832,-0.859 V 5.419 c 0,-0.501 0.098,-0.984 0.295,-1.448 C -3.265,3.506 -3.005,3.094 -2.683,2.737 -2.326,2.415 -1.914,2.155 -1.449,1.958 -0.984,1.761 -0.501,1.664 0,1.664 H 5.205 C 5.42,1.664 5.608,1.583 5.769,1.422 5.93,1.261 6.01,1.055 6.01,0.805 6.01,0.591 5.93,0.402 5.769,0.242 5.608,0.081 5.42,0 5.205,0 Z" /></g><g
           transform="translate(252.6724,557.2822)"
           id="g28"><path
             id="path30"
             style="fill:#2296d5;fill-opacity:1;fill-rule:nonzero;stroke:none"
             d="m 0,0 c -0.787,-0.787 -1.404,-1.69 -1.851,-2.71 -0.448,-1.019 -0.67,-2.119 -0.67,-3.3 0,-1.18 0.222,-2.29 0.67,-3.327 0.447,-1.038 1.064,-1.95 1.851,-2.737 0.751,-0.787 1.645,-1.395 2.684,-1.824 1.036,-0.429 2.146,-0.644 3.326,-0.644 1.181,0 2.288,0.215 3.327,0.644 1.037,0.429 1.95,1.037 2.737,1.824 0.751,0.787 1.35,1.699 1.798,2.737 0.446,1.037 0.67,2.147 0.67,3.327 0,1.181 -0.224,2.281 -0.67,3.3 C 13.424,-1.69 12.825,-0.787 12.074,0 11.287,0.786 10.374,1.403 9.337,1.851 8.298,2.298 7.191,2.522 6.01,2.522 4.83,2.522 3.72,2.298 2.684,1.851 1.645,1.403 0.751,0.786 0,0 m 6.01,-16.259 c -1.395,0 -2.71,0.268 -3.944,0.805 -1.234,0.537 -2.316,1.269 -3.247,2.2 -0.93,0.93 -1.663,2.012 -2.199,3.246 -0.537,1.234 -0.806,2.567 -0.806,3.998 0,1.395 0.269,2.71 0.806,3.944 0.536,1.234 1.269,2.316 2.199,3.247 0.931,0.929 2.013,1.663 3.247,2.2 1.234,0.536 2.549,0.805 3.944,0.805 1.43,0 2.763,-0.269 3.998,-0.805 1.234,-0.537 2.315,-1.271 3.246,-2.2 0.93,-0.931 1.655,-2.013 2.173,-3.247 0.519,-1.234 0.779,-2.549 0.779,-3.944 0,-1.431 -0.26,-2.764 -0.779,-3.998 -0.518,-1.234 -1.243,-2.316 -2.173,-3.246 -0.931,-0.931 -2.012,-1.663 -3.246,-2.2 -1.235,-0.537 -2.568,-0.805 -3.998,-0.805" /></g><g
           transform="translate(274.1367,542.2036)"
           id="g32"><path
             id="path34"
             style="fill:#2296d5;fill-opacity:1;fill-rule:nonzero;stroke:none"
             d="m 0,0 c -1.36,1.288 -2.04,2.933 -2.04,4.937 v 14.38 c 0,0.251 0.081,0.457 0.242,0.618 0.161,0.161 0.349,0.241 0.564,0.241 0.571,0 0.859,-0.286 0.859,-0.859 V 4.937 c 0,-0.751 0.133,-1.44 0.402,-2.066 0.268,-0.626 0.652,-1.19 1.154,-1.69 1.036,-1.038 2.271,-1.556 3.702,-1.556 h 0.054 c 1.538,0 2.771,0.5 3.702,1.502 l 0.054,0.054 c 0.465,0.5 0.831,1.064 1.099,1.69 0.269,0.626 0.403,1.315 0.403,2.066 v 14.38 c 0,0.573 0.277,0.859 0.832,0.859 0.554,0 0.832,-0.286 0.832,-0.859 V 4.937 C 11.859,3.97 11.685,3.059 11.336,2.2 10.987,1.342 10.5,0.608 9.874,0 L 9.82,-0.054 C 9.14,-0.662 8.388,-1.146 7.566,-1.502 6.743,-1.86 5.867,-2.039 4.937,-2.039 H 4.883 C 2.915,-2.039 1.288,-1.359 0,0" /></g><g
           transform="translate(301.2754,544.457)"
           id="g36"><path
             id="path38"
             style="fill:#2296d5;fill-opacity:1;fill-rule:nonzero;stroke:none"
             d="m 0,0 c 0.861,0.894 1.544,1.914 2.047,3.06 0.504,1.144 0.756,2.396 0.756,3.755 0,1.323 -0.252,2.567 -0.756,3.729 -0.503,1.163 -1.186,2.174 -2.047,3.033 -0.897,0.893 -1.921,1.59 -3.07,2.092 -1.151,0.501 -2.389,0.751 -3.718,0.751 h -3.556 V -2.79 h 3.556 c 1.329,0 2.577,0.25 3.744,0.751 C -1.877,-1.538 -0.861,-0.858 0,0 m -6.75,18.084 c 1.574,0 3.033,-0.295 4.374,-0.885 1.341,-0.591 2.53,-1.405 3.568,-2.442 C 2.229,13.72 3.034,12.53 3.607,11.189 4.179,9.847 4.465,8.389 4.465,6.815 4.465,5.241 4.179,3.774 3.607,2.415 3.034,1.055 2.229,-0.143 1.192,-1.18 0.154,-2.218 -1.035,-3.023 -2.376,-3.595 -3.717,-4.167 -5.176,-4.453 -6.75,-4.453 h -4.399 c -0.251,0 -0.456,0.08 -0.617,0.241 -0.162,0.161 -0.242,0.349 -0.242,0.564 v 20.873 c 0,0.572 0.286,0.859 0.859,0.859 z" /></g><g
           transform="translate(309.8203,540.0571)"
           id="g40"><path
             id="path42"
             style="fill:#2296d5;fill-opacity:1;fill-rule:nonzero;stroke:none"
             d="m 0,0 c -0.574,0 -0.859,0.286 -0.859,0.859 v 20.712 c 0,0.573 0.285,0.859 0.859,0.859 0.321,0 0.554,-0.16 0.696,-0.483 L 12.233,3.703 v 17.868 c 0,0.573 0.277,0.859 0.832,0.859 0.554,0 0.831,-0.286 0.831,-0.859 V 0.859 c 0,-0.322 -0.137,-0.573 -0.414,-0.752 -0.414,-0.25 -0.777,-0.16 -1.087,0.268 L 0.804,18.674 V 0.859 C 0.804,0.608 0.724,0.402 0.562,0.242 0.402,0.081 0.213,0 0,0" /></g><g
           transform="translate(337.6689,546.0132)"
           id="g44"><path
             id="path46"
             style="fill:#2296d5;fill-opacity:1;fill-rule:nonzero;stroke:none"
             d="m 0,0 c -0.394,0 -0.726,0.134 -0.993,0.403 -0.268,0.268 -0.403,0.599 -0.403,0.993 0,0.393 0.135,0.724 0.403,0.992 C -0.726,2.656 -0.394,2.791 0,2.791 0.394,2.791 0.724,2.656 0.992,2.388 1.261,2.12 1.396,1.789 1.396,1.396 1.396,1.002 1.261,0.671 0.992,0.403 0.724,0.134 0.394,0 0,0 M 10.518,-4.829 C 10.625,-5.043 10.633,-5.267 10.544,-5.5 10.455,-5.733 10.304,-5.884 10.087,-5.956 9.909,-6.063 9.702,-6.073 9.471,-5.983 9.238,-5.894 9.086,-5.76 9.015,-5.581 L 0,13.737 -9.016,-5.581 c -0.107,-0.179 -0.268,-0.313 -0.483,-0.402 -0.213,-0.09 -0.429,-0.08 -0.643,0.027 -0.214,0.072 -0.358,0.223 -0.429,0.456 -0.073,0.233 -0.073,0.457 0,0.671 l 9.82,20.874 c 0.071,0.214 0.215,0.357 0.43,0.429 0.214,0.072 0.427,0.072 0.642,0 0.143,-0.072 0.286,-0.215 0.43,-0.429 z" /></g><g
           transform="translate(352.4238,560.7705)"
           id="g48"><path
             id="path50"
             style="fill:#2296d5;fill-opacity:1;fill-rule:nonzero;stroke:none"
             d="m 0,0 c -0.572,0 -0.857,0.286 -0.857,0.858 0,0.573 0.285,0.859 0.857,0.859 h 13.147 c 0.572,0 0.86,-0.286 0.86,-0.859 C 14.007,0.286 13.719,0 13.147,0 h -5.74 v -19.854 c 0,-0.573 -0.288,-0.859 -0.86,-0.859 -0.214,0 -0.402,0.08 -0.563,0.241 -0.161,0.161 -0.241,0.367 -0.241,0.618 V 0 Z" /></g><g
           transform="translate(370.4541,562.3799)"
           id="g52"><path
             id="path54"
             style="fill:#2296d5;fill-opacity:1;fill-rule:nonzero;stroke:none"
             d="M 0,0 C 0.25,0 0.457,-0.08 0.618,-0.241 0.778,-0.402 0.859,-0.59 0.859,-0.805 V -21.41 c 0,-0.573 -0.288,-0.859 -0.859,-0.859 -0.215,0 -0.402,0.081 -0.562,0.241 -0.162,0.161 -0.242,0.367 -0.242,0.618 v 20.605 c 0,0.215 0.08,0.403 0.242,0.564 C -0.402,-0.08 -0.215,0 0,0" /></g><g
           transform="translate(374.6396,561.0923)"
           id="g56"><path
             id="path58"
             style="fill:#2296d5;fill-opacity:1;fill-rule:nonzero;stroke:none"
             d="M 0,0 C -0.072,0.214 -0.063,0.429 0.027,0.644 0.115,0.858 0.268,1.001 0.483,1.073 0.696,1.145 0.912,1.135 1.127,1.046 1.341,0.956 1.484,0.805 1.557,0.59 l 6.76,-18.137 6.815,18.137 c 0.179,0.501 0.537,0.661 1.074,0.483 C 16.42,1.001 16.571,0.858 16.661,0.644 16.751,0.429 16.759,0.214 16.688,0 L 9.121,-20.23 c -0.142,-0.287 -0.304,-0.448 -0.482,-0.483 -0.215,-0.072 -0.429,-0.063 -0.643,0.027 -0.216,0.088 -0.359,0.242 -0.431,0.456 z" /></g><g
           transform="translate(406.7812,552.0776)"
           id="g60"><path
             id="path62"
             style="fill:#2296d5;fill-opacity:1;fill-rule:nonzero;stroke:none"
             d="M 0,0 C 0.251,0 0.456,-0.081 0.617,-0.242 0.778,-0.403 0.858,-0.59 0.858,-0.806 0.858,-1.378 0.572,-1.664 0,-1.664 h -6.493 c -0.571,0 -0.859,0.286 -0.859,0.858 0,0.216 0.082,0.403 0.243,0.564 C -6.948,-0.081 -6.742,0 -6.493,0 Z m 0,10.463 c 0.572,0 0.858,-0.286 0.858,-0.859 C 0.858,9.39 0.778,9.202 0.617,9.042 0.454,8.88 0.248,8.8 -0.004,8.8 H -5.18 C -6.688,8.8 -7.93,8.281 -8.9,7.244 -9.402,6.743 -9.788,6.17 -10.06,5.526 -10.33,4.882 -10.463,4.203 -10.463,3.488 v -8.586 c 0,-0.752 0.133,-1.44 0.403,-2.066 0.272,-0.627 0.658,-1.19 1.16,-1.69 0.97,-1.039 2.212,-1.557 3.72,-1.557 h 5.176 c 0.575,0 0.862,-0.287 0.862,-0.858 0,-0.215 -0.08,-0.402 -0.241,-0.564 C 0.456,-11.994 0.251,-12.074 0,-12.074 h -5.151 c -1.932,0 -3.578,0.679 -4.937,2.039 -0.607,0.608 -1.1,1.342 -1.475,2.2 -0.375,0.859 -0.564,1.771 -0.564,2.737 v 8.586 c 0,0.966 0.189,1.868 0.564,2.709 0.375,0.841 0.868,1.584 1.475,2.227 0.645,0.608 1.387,1.1 2.228,1.476 0.839,0.376 1.743,0.563 2.709,0.563 z" /></g><g
           transform="translate(268.8027,567.4834)"
           id="g64"><path
             id="path66"
             style="fill:#00a1e9;fill-opacity:1;fill-rule:evenodd;stroke:none"
             d="m 0,0 h -5.04 c 0,0 -0.88,7.121 -9.681,6.08 0,0 -2.638,18.32 -20.319,17.92 -17.68,-0.399 -20,-17.119 -20,-20 V -5.439 H -72 c 0,0 -8.24,-0.641 -8.24,-8 0,-7.36 3.28,-11.121 8.08,-11.121 h 16.96 v -5.52 h -17.76 c 0,0 -12.3,1.621 -12.54,14.701 -0.24,13.08 10.32,15 15.3,15 h 10.08 c 0,0 -3.12,20.4 16.08,27.9 19.2,7.5 32.04,-9 33.54,-16.38 0,0 9.779,-1.781 10.5,-11.141" /></g><g
           transform="translate(193.3301,589.1255)"
           id="g68"><path
             id="path70"
             style="fill:#00a1e9;fill-opacity:1;fill-rule:evenodd;stroke:none"
             d="m 0,0 h 0.178 c 1.475,0 2.671,1.195 2.671,2.67 v 0.178 c 0,1.475 -1.196,2.671 -2.671,2.671 H 0 c -1.475,0 -2.67,-1.196 -2.67,-2.671 V 2.67 C -2.67,1.195 -1.475,0 0,0 m -6.273,0.559 h -0.235 c -1.945,0 -3.523,-1.577 -3.523,-3.522 v -0.235 c 0,-1.946 1.578,-3.522 3.523,-3.522 h 0.235 c 1.945,0 3.521,1.576 3.521,3.522 v 0.235 c 0,1.945 -1.576,3.522 -3.521,3.522 m 9.162,-5.64 H 2.568 c -2.65,0 -4.799,-2.148 -4.799,-4.8 v -0.32 c 0,-2.651 2.149,-4.8 4.799,-4.8 h 0.321 c 2.65,0 4.8,2.149 4.8,4.8 v 0.32 c 0,2.652 -2.15,4.8 -4.8,4.8" /></g></g></g></g></svg>